<mxfile host="app.diagrams.net" agent="Mozilla/5.0 (Windows NT 10.0; Win64; x64) AppleWebKit/537.36 (KHTML, like Gecko) Chrome/136.0.0.0 Safari/537.36 Edg/136.0.0.0" version="27.0.9">
  <diagram name="Страница — 1" id="cxsQ7ARPLiNpOW3q7tje">
    <mxGraphModel dx="978" dy="542" grid="1" gridSize="10" guides="1" tooltips="1" connect="1" arrows="1" fold="1" page="1" pageScale="1" pageWidth="827" pageHeight="1169" math="0" shadow="0">
      <root>
        <mxCell id="0" />
        <mxCell id="1" parent="0" />
        <mxCell id="mZGNI8fHzGR_WwtlW3j--1" value="Доступна" style="rounded=1;whiteSpace=wrap;html=1;arcSize=40;fontColor=#000000;fillColor=#ffffc0;strokeColor=#ff0000;" vertex="1" parent="1">
          <mxGeometry x="250" y="330" width="120" height="40" as="geometry" />
        </mxCell>
        <mxCell id="mZGNI8fHzGR_WwtlW3j--5" value="" style="ellipse;html=1;shape=startState;fillColor=#000000;strokeColor=#ff0000;" vertex="1" parent="1">
          <mxGeometry x="295" y="240" width="30" height="30" as="geometry" />
        </mxCell>
        <mxCell id="mZGNI8fHzGR_WwtlW3j--6" value="" style="edgeStyle=orthogonalEdgeStyle;html=1;verticalAlign=bottom;endArrow=open;endSize=8;strokeColor=#ff0000;rounded=0;" edge="1" source="mZGNI8fHzGR_WwtlW3j--5" parent="1" target="mZGNI8fHzGR_WwtlW3j--1">
          <mxGeometry relative="1" as="geometry">
            <mxPoint x="310" y="330" as="targetPoint" />
          </mxGeometry>
        </mxCell>
        <mxCell id="mZGNI8fHzGR_WwtlW3j--7" value="&lt;font style=&quot;font-size: 23px;&quot;&gt;&lt;b&gt;КНОПКА РЕГИСТРАЦИИ&lt;/b&gt;&lt;/font&gt;" style="text;html=1;align=center;verticalAlign=middle;resizable=0;points=[];autosize=1;strokeColor=none;fillColor=none;" vertex="1" parent="1">
          <mxGeometry x="380" y="210" width="300" height="40" as="geometry" />
        </mxCell>
        <mxCell id="mZGNI8fHzGR_WwtlW3j--8" value="В активном состоянии" style="rounded=1;whiteSpace=wrap;html=1;arcSize=40;fontColor=#000000;fillColor=#ffffc0;strokeColor=#ff0000;" vertex="1" parent="1">
          <mxGeometry x="460" y="330" width="120" height="40" as="geometry" />
        </mxCell>
        <mxCell id="mZGNI8fHzGR_WwtlW3j--12" value="" style="edgeStyle=orthogonalEdgeStyle;html=1;verticalAlign=bottom;endArrow=open;endSize=8;strokeColor=#ff0000;rounded=0;exitX=1;exitY=0.5;exitDx=0;exitDy=0;entryX=0;entryY=0.5;entryDx=0;entryDy=0;" edge="1" parent="1" source="mZGNI8fHzGR_WwtlW3j--1" target="mZGNI8fHzGR_WwtlW3j--8">
          <mxGeometry relative="1" as="geometry">
            <mxPoint x="440" y="320" as="targetPoint" />
            <mxPoint x="440" y="260" as="sourcePoint" />
          </mxGeometry>
        </mxCell>
        <mxCell id="mZGNI8fHzGR_WwtlW3j--13" value="НАЖАТИЕ" style="text;html=1;align=center;verticalAlign=middle;resizable=0;points=[];autosize=1;strokeColor=none;fillColor=none;" vertex="1" parent="1">
          <mxGeometry x="370" y="320" width="80" height="30" as="geometry" />
        </mxCell>
        <mxCell id="mZGNI8fHzGR_WwtlW3j--15" value="" style="edgeStyle=orthogonalEdgeStyle;html=1;verticalAlign=bottom;endArrow=open;endSize=8;strokeColor=#ff0000;rounded=0;exitX=1;exitY=0.5;exitDx=0;exitDy=0;entryX=0.5;entryY=0;entryDx=0;entryDy=0;" edge="1" parent="1" source="mZGNI8fHzGR_WwtlW3j--8" target="mZGNI8fHzGR_WwtlW3j--16">
          <mxGeometry relative="1" as="geometry">
            <mxPoint x="670" y="410" as="targetPoint" />
            <mxPoint x="580" y="410" as="sourcePoint" />
            <Array as="points">
              <mxPoint x="750" y="350" />
              <mxPoint x="750" y="410" />
            </Array>
          </mxGeometry>
        </mxCell>
        <mxCell id="mZGNI8fHzGR_WwtlW3j--16" value="Исчезла" style="rounded=1;whiteSpace=wrap;html=1;arcSize=40;fontColor=#000000;fillColor=#ffffc0;strokeColor=#ff0000;" vertex="1" parent="1">
          <mxGeometry x="690" y="410" width="120" height="40" as="geometry" />
        </mxCell>
        <mxCell id="mZGNI8fHzGR_WwtlW3j--19" value="" style="edgeStyle=orthogonalEdgeStyle;html=1;verticalAlign=bottom;endArrow=open;endSize=8;strokeColor=#ff0000;rounded=0;exitX=0;exitY=0.5;exitDx=0;exitDy=0;entryX=0.5;entryY=1;entryDx=0;entryDy=0;" edge="1" parent="1" source="mZGNI8fHzGR_WwtlW3j--16" target="mZGNI8fHzGR_WwtlW3j--1">
          <mxGeometry relative="1" as="geometry">
            <mxPoint x="580" y="540" as="targetPoint" />
            <mxPoint x="490" y="480" as="sourcePoint" />
          </mxGeometry>
        </mxCell>
        <mxCell id="mZGNI8fHzGR_WwtlW3j--20" value="ВЫХОД ИЗ АККАУНТА" style="text;html=1;align=center;verticalAlign=middle;resizable=0;points=[];autosize=1;strokeColor=none;fillColor=none;" vertex="1" parent="1">
          <mxGeometry x="445" y="400" width="150" height="30" as="geometry" />
        </mxCell>
        <mxCell id="mZGNI8fHzGR_WwtlW3j--21" value="СОЗДАНИЕ АККАУНТА" style="text;html=1;align=center;verticalAlign=middle;resizable=0;points=[];autosize=1;strokeColor=none;fillColor=none;" vertex="1" parent="1">
          <mxGeometry x="590" y="320" width="150" height="30" as="geometry" />
        </mxCell>
        <mxCell id="mZGNI8fHzGR_WwtlW3j--23" value="" style="edgeStyle=orthogonalEdgeStyle;html=1;verticalAlign=bottom;endArrow=open;endSize=8;strokeColor=light-dark(#FF0000,#FFFFFF);rounded=0;exitX=0.5;exitY=0;exitDx=0;exitDy=0;entryX=0.75;entryY=0;entryDx=0;entryDy=0;" edge="1" parent="1" source="mZGNI8fHzGR_WwtlW3j--8" target="mZGNI8fHzGR_WwtlW3j--1">
          <mxGeometry relative="1" as="geometry">
            <mxPoint x="360" y="220" as="targetPoint" />
            <mxPoint x="740" y="280" as="sourcePoint" />
            <Array as="points">
              <mxPoint x="520" y="280" />
              <mxPoint x="340" y="280" />
            </Array>
          </mxGeometry>
        </mxCell>
        <mxCell id="mZGNI8fHzGR_WwtlW3j--24" value="Отмена регистрации" style="text;html=1;align=center;verticalAlign=middle;resizable=0;points=[];autosize=1;strokeColor=none;fillColor=none;" vertex="1" parent="1">
          <mxGeometry x="360" y="250" width="140" height="30" as="geometry" />
        </mxCell>
      </root>
    </mxGraphModel>
  </diagram>
</mxfile>
